<svg width="171.11" height="41" viewBox="0 0 171.11 41" xmlns="http://www.w3.org/2000/svg">
  <path d="M16.5 31Q14.51 31 13.05 30.26Q11.6 29.52 10.8 28.16Q10 26.8 10 24.95V16.05Q10 14.2 10.8 12.84Q11.6 11.48 13.05 10.74Q14.51 10 16.5 10Q18.46 10 19.91 10.74Q21.37 11.48 22.18 12.84Q22.99 14.2 22.99 16.05H19.46Q19.46 14.62 18.69 13.85Q17.92 13.08 16.5 13.08Q15.07 13.08 14.28 13.85Q13.5 14.62 13.5 16.05V24.95Q13.5 26.38 14.28 27.15Q15.07 27.92 16.5 27.92Q17.92 27.92 18.69 27.15Q19.46 26.38 19.46 24.95H22.99Q22.99 26.8 22.18 28.16Q21.37 29.52 19.91 30.26Q18.46 31 16.5 31Z M33.57 30.97Q30.6 30.97 28.87 29.31Q27.13 27.64 27.13 24.81V21.23Q27.13 18.37 28.87 16.72Q30.6 15.07 33.57 15.07Q36.54 15.07 38.28 16.72Q40.01 18.37 40.01 21.23V24.81Q40.01 27.64 38.28 29.31Q36.54 30.97 33.57 30.97ZM33.57 27.92Q34.97 27.92 35.74 27.15Q36.51 26.38 36.51 24.92V21.12Q36.51 19.66 35.74 18.89Q34.97 18.12 33.57 18.12Q32.17 18.12 31.4 18.89Q30.63 19.66 30.63 21.12V24.92Q30.63 26.38 31.4 27.15Q32.17 27.92 33.57 27.92Z M49.47 31Q47.23 31 45.85 29.4Q44.46 27.81 44.46 25.12V20.95Q44.46 18.23 45.83 16.64Q47.2 15.04 49.47 15.04Q51.07 15.04 52.17 15.85Q53.28 16.66 53.73 18.12L53.62 14.59V10.28H57.12V30.72H53.7V27.92Q53.28 29.38 52.19 30.19Q51.1 31 49.47 31ZM50.79 27.98Q52.13 27.98 52.87 27.16Q53.62 26.35 53.62 24.87V21.17Q53.62 19.69 52.87 18.88Q52.13 18.06 50.79 18.06Q49.44 18.06 48.7 18.79Q47.96 19.52 47.96 21.03V25.01Q47.96 26.52 48.7 27.25Q49.44 27.98 50.79 27.98Z M68.2 31Q66.24 31 64.78 30.24Q63.33 29.49 62.53 28.1Q61.73 26.72 61.73 24.84V21.2Q61.73 19.32 62.53 17.94Q63.33 16.55 64.78 15.8Q66.24 15.04 68.2 15.04Q70.13 15.04 71.57 15.8Q73.02 16.55 73.81 17.91Q74.61 19.27 74.61 21.09V23.89H65.09V24.95Q65.09 26.52 65.9 27.32Q66.72 28.12 68.2 28.12Q69.29 28.12 70.06 27.74Q70.83 27.36 70.97 26.63H74.44Q74.08 28.62 72.37 29.81Q70.66 31 68.2 31ZM65.09 21.09V21.62L71.25 21.59V21.06Q71.25 19.46 70.47 18.6Q69.68 17.73 68.2 17.73Q66.66 17.73 65.88 18.61Q65.09 19.49 65.09 21.09Z M85.7 31Q83.71 31 82.25 30.26Q80.8 29.52 80 28.16Q79.2 26.8 79.2 24.95V16.05Q79.2 14.2 80 12.84Q80.8 11.48 82.25 10.74Q83.71 10 85.7 10Q87.66 10 89.11 10.74Q90.57 11.48 91.38 12.84Q92.19 14.2 92.19 16.05H88.66Q88.66 14.62 87.89 13.85Q87.12 13.08 85.7 13.08Q84.27 13.08 83.48 13.85Q82.7 14.62 82.7 16.05V24.95Q82.7 26.38 83.48 27.15Q84.27 27.92 85.7 27.92Q87.12 27.92 87.89 27.15Q88.66 26.38 88.66 24.95H92.19Q92.19 26.8 91.38 28.16Q90.57 29.52 89.11 30.26Q87.66 31 85.7 31Z M97.09 30.72V15.32H100.5V18.32Q100.78 16.8 101.89 15.92Q103 15.04 104.76 15.04Q107.11 15.04 108.43 16.55Q109.74 18.06 109.74 20.78V22.24H106.24V20.95Q106.24 19.55 105.52 18.81Q104.79 18.06 103.44 18.06Q102.04 18.06 101.32 18.9Q100.59 19.74 100.59 21.28V30.72Z M118.36 31Q116.01 31 114.65 29.67Q113.3 28.34 113.3 26.18Q113.3 23.94 114.84 22.61Q116.38 21.28 119.06 21.28H122.82V20.19Q122.82 17.87 120.1 17.87Q118.87 17.87 118.14 18.34Q117.41 18.82 117.33 19.69H113.97Q114.08 17.62 115.72 16.33Q117.36 15.04 120.13 15.04Q123.07 15.04 124.69 16.41Q126.32 17.78 126.32 20.28V30.72H122.9V27.84Q122.7 29.32 121.5 30.16Q120.3 31 118.36 31ZM119.48 28.14Q121.02 28.14 121.92 27.39Q122.82 26.63 122.82 25.37V23.55H119.23Q118.08 23.55 117.41 24.2Q116.74 24.84 116.74 25.85Q116.74 26.88 117.45 27.51Q118.17 28.14 119.48 28.14Z M138.91 30.72Q136.76 30.72 135.48 29.47Q134.21 28.23 134.21 26.1V18.48H129.95V15.32H134.21V10.98H137.74V15.32H143.87V18.48H137.74V26.02Q137.74 26.69 138.11 27.12Q138.49 27.56 139.16 27.56H143.73V30.72Z M154.7 31Q152.74 31 151.28 30.24Q149.83 29.49 149.03 28.1Q148.23 26.72 148.23 24.84V21.2Q148.23 19.32 149.03 17.94Q149.83 16.55 151.28 15.8Q152.74 15.04 154.7 15.04Q156.63 15.04 158.07 15.8Q159.52 16.55 160.31 17.91Q161.11 19.27 161.11 21.09V23.89H151.59V24.95Q151.59 26.52 152.4 27.32Q153.22 28.12 154.7 28.12Q155.79 28.12 156.56 27.74Q157.33 27.36 157.47 26.63H160.94Q160.58 28.62 158.87 29.81Q157.16 31 154.7 31ZM151.59 21.09V21.62L157.75 21.59V21.06Q157.75 19.46 156.97 18.6Q156.18 17.73 154.7 17.73Q153.16 17.73 152.38 18.61Q151.59 19.49 151.59 21.09Z" fill="#f5f5f5"/>
</svg>
